PathFileType  4	(X/Y/Z) C:\Users\antoi\Documents\MyRepositories\mobilecap\ResultsAnalysis
DataRate	CameraRate	NumFrames	NumMarkers	Units	OrigDataRate	OrigDataStartFrame	OrigNumFrames
100.0	100.0	5	51	mm	100.0	52	138
Frame#	Time	r_knee			r_shank_antsup			r_ankle			r_calc			r_5meta			r_toe			L_knee			L_shank_antsup			L_ankle			L_calc			L_5meta			L_toe			r_sh2			r_sh3			r_sh4			L_sh2			L_sh3			r_thigh1			r_thigh2			r_thigh3			r_thigh4			r_thigh5			L_thigh1			L_thigh2			L_thigh3			L_thigh4			r.ASIS			r.PSIS			L.ASIS			L.PSIS			C7			R_Shoulder			L_Shoulder			R_Sternum			L_Sternum			R_humerus			R_elbow_med			R_elbow_lat			R_forearm			R_wrist_radius			R_wrist_ulna			L_humerus			L_elbow_med			L_elbow_lat			L_forearm			L_wrist_radius			L_wrist_ulna			R_HJC			L_HJC			R_HJC_reg			L_HJC_reg			
		X1	Y1	Z1	X2	Y2	Z2	X3	Y3	Z3	X4	Y4	Z4	X5	Y5	Z5	X6	Y6	Z6	X7	Y7	Z7	X8	Y8	Z8	X9	Y9	Z9	X10	Y10	Z10	X11	Y11	Z11	X12	Y12	Z12	X13	Y13	Z13	X14	Y14	Z14	X15	Y15	Z15	X16	Y16	Z16	X17	Y17	Z17	X18	Y18	Z18	X19	Y19	Z19	X20	Y20	Z20	X21	Y21	Z21	X22	Y22	Z22	X23	Y23	Z23	X24	Y24	Z24	X25	Y25	Z25	X26	Y26	Z26	X27	Y27	Z27	X28	Y28	Z28	X29	Y29	Z29	X30	Y30	Z30	X31	Y31	Z31	X32	Y32	Z32	X33	Y33	Z33	X34	Y34	Z34	X35	Y35	Z35	X36	Y36	Z36	X37	Y37	Z37	X38	Y38	Z38	X39	Y39	Z39	X40	Y40	Z40	X41	Y41	Z41	X42	Y42	Z42	X43	Y43	Z43	X44	Y44	Z44	X45	Y45	Z45	X46	Y46	Z46	X47	Y47	Z47	X48	Y48	Z48	X49	Y49	Z49	X50	Y50	Z50	X51	Y51	Z51	

52	0.51000000	484.72978	484.50421	-46.38404	499.57266	406.62203	-69.48110	326.54718	108.15898	-95.12315	250.83484	86.08909	-132.23923	420.38789	39.40814	-64.91722	472.81110	63.03852	-121.41320	753.30921	492.87851	-300.54143	810.88511	419.39124	-305.33574	862.36241	108.43746	-282.06416	813.85695	54.74870	-232.50087	986.30324	78.97535	-318.50072	1015.23895	120.96343	-270.99796	443.30688	305.28558	-53.04770	428.80257	441.51179	-33.87112	376.06981	342.57868	-39.96768	722.38910	399.96642	-303.45734	761.43272	282.90215	-311.04650	629.12834	775.57427	3.84716	599.05461	668.30552	-12.99906	538.20810	658.82558	9.18005	520.62602	800.90939	25.19575	490.05527	689.28808	0.40476	689.41085	751.14143	-352.84720	742.92250	627.26646	-325.73521	583.76898	709.96121	-314.37636	644.96120	582.69988	-297.34059	676.39785	948.65501	-30.16673	489.28607	994.04753	-121.35134	691.86011	931.86931	-279.77967	487.44472	992.60214	-222.30357	491.50884	1397.67780	-175.20208	610.75088	1366.11980	-7.58693	554.76837	1363.72638	-360.59434	634.92224	1367.96307	-169.48901	633.90579	1369.76441	-211.98622	649.55850	1234.06209	48.64455	627.62720	1014.47322	19.52104	657.89680	1034.12674	77.08317	775.82678	955.38845	57.20145	866.84794	856.60140	31.51244	851.54719	835.84931	58.36136	527.68549	1252.33374	-414.79297	426.18409	1051.78835	-311.76215	413.03847	1071.24227	-387.25209	412.77522	960.52770	-415.83160	348.74934	814.27588	-425.98120	321.05602	831.34984	-437.59341	595.09870	872.24205	-55.56548	606.44622	863.20540	-261.52911	607.79309	872.43266	-62.57010	604.77594	870.06550	-227.95605	
53	0.52000000	494.50716	483.33832	-46.99756	508.01893	404.83455	-70.13540	328.56505	110.33312	-94.85852	252.17681	89.60732	-131.88877	420.84772	39.50510	-64.79359	473.72946	62.59092	-121.11980	764.32648	491.95581	-300.74370	820.57543	417.14903	-305.10399	866.18725	105.93109	-281.08739	815.99016	55.32247	-231.58142	988.81752	73.41435	-317.49677	1019.43573	113.88003	-269.72488	449.70161	304.75114	-53.36939	438.14641	441.27061	-34.34681	383.22963	343.48777	-40.14026	731.74588	399.31975	-303.04587	768.64181	281.56755	-310.20225	639.37436	774.19161	2.98440	609.11195	667.02117	-13.60259	548.33380	657.70788	8.42584	530.89107	799.79512	23.93164	500.16294	688.17118	-0.70220	701.91319	750.88090	-353.12521	755.10730	626.83138	-325.94938	595.99285	709.95639	-316.60536	656.91711	582.23792	-298.46263	687.37661	946.98437	-30.85860	500.32199	992.80883	-122.55930	703.27155	930.78749	-280.68681	498.57913	991.55438	-223.43583	502.67000	1396.53405	-176.96024	621.97146	1365.17783	-9.18786	566.26279	1362.27507	-362.28954	645.95557	1366.93231	-171.13843	645.27622	1368.56491	-213.65178	660.22075	1232.98592	47.22012	637.89875	1013.39400	17.98934	667.85152	1032.99488	75.61017	785.73742	953.99446	56.13829	876.52968	855.00039	30.71045	861.03391	834.20653	57.41205	538.96501	1250.80986	-416.19606	436.98091	1050.62159	-312.88261	423.78345	1070.15358	-388.42915	422.98923	959.46316	-416.81111	359.22155	814.03114	-427.10993	330.65935	830.87973	-438.55970	605.94828	870.73259	-56.74748	617.70996	862.15341	-262.70562	618.74901	870.93748	-63.50137	615.88910	868.88076	-229.02970	
54	0.53000000	504.84272	482.21465	-47.68417	516.95661	403.06319	-70.80068	330.90429	112.93400	-94.57640	253.86094	93.74657	-131.52284	421.38974	39.67968	-64.66970	474.81717	62.05472	-120.78847	774.66133	491.03709	-301.02364	830.14363	415.12655	-304.95381	870.04209	103.75765	-280.10347	818.10608	56.30589	-230.65545	991.22175	67.95994	-316.28435	1023.57119	106.80837	-268.24133	456.46497	304.36150	-53.70558	448.00120	441.18314	-34.86698	390.86143	344.61032	-40.37804	741.02382	398.77467	-302.65704	775.89501	280.41746	-309.30790	649.95388	772.94653	1.99878	619.53617	665.80864	-14.30146	558.87223	656.65708	7.52461	541.47935	798.74590	22.49793	510.69765	687.09446	-1.96037	714.13356	750.63695	-353.72259	766.82547	626.31240	-326.43946	607.99562	710.29622	-318.78385	668.33707	581.99797	-299.49686	698.59635	945.48021	-31.65825	511.48368	991.78643	-123.79482	714.87809	930.18216	-281.70011	509.89044	990.74260	-224.57827	513.90580	1395.61409	-178.72404	633.28812	1364.52286	-10.82618	577.75813	1360.99806	-363.98562	657.12786	1366.09324	-172.83696	656.70819	1367.55288	-215.34072	670.96962	1232.18623	45.75557	648.07606	1012.61896	16.36844	677.88275	1032.23049	74.16183	795.39614	952.65299	55.12542	885.81746	853.30224	30.05412	870.05186	832.51076	56.52276	550.37055	1249.40627	-417.59306	448.18041	1049.40044	-314.11425	435.03278	1068.94815	-389.75263	434.05124	958.22581	-417.85391	370.52946	813.34217	-428.26389	341.37488	829.98110	-439.71342	617.05940	869.38841	-58.09681	629.20936	861.49439	-264.05731	629.87468	869.74873	-64.59860	627.25681	868.03579	-230.25703	
55	0.54000000	515.79243	481.14319	-48.40473	526.43772	401.33135	-71.38643	333.56334	115.96802	-94.24771	255.95912	98.54764	-131.14135	422.01277	39.93528	-64.54693	476.08256	61.41229	-120.42246	784.45879	490.17235	-301.36094	839.69776	413.34391	-304.85968	874.03377	101.90027	-279.15525	820.37155	57.46821	-229.80061	993.65906	62.81562	-314.94312	1027.65114	100.02325	-266.61365	463.60193	304.16346	-53.99684	458.38786	441.29531	-35.39512	398.98252	345.99262	-40.66243	750.34150	398.37071	-302.42077	783.30301	279.49276	-308.52826	660.92005	771.86509	0.89339	630.41360	664.71465	-15.05515	569.85082	655.64698	6.46039	552.43009	797.76891	20.90353	521.70937	686.06322	-3.34620	725.93170	750.34142	-354.69598	778.00229	625.68996	-327.18961	619.64849	710.81540	-320.72169	679.14902	581.94151	-300.39860	710.06317	944.19977	-32.57506	522.79219	990.98382	-125.07305	726.68972	930.04018	-282.79560	521.41885	990.17611	-225.75050	525.20651	1394.90329	-180.48719	644.65989	1364.15383	-12.48795	589.24715	1359.90879	-365.67158	668.41448	1365.45892	-174.56286	668.18291	1366.75632	-217.03831	681.78804	1231.66803	44.25428	658.14869	1012.15254	14.66246	687.94817	1031.81259	72.73064	804.79864	951.38251	54.16770	894.72760	851.54131	29.54761	878.62917	830.81014	55.68688	561.91796	1248.14983	-418.98844	459.77810	1048.16467	-315.45183	446.76826	1067.65818	-391.20635	445.93417	956.84789	-418.95558	382.69077	812.22692	-429.45176	353.20937	828.68545	-441.03030	628.44781	868.25074	-59.59473	640.97178	861.21939	-265.56194	641.18938	868.86616	-65.88341	638.93015	867.54020	-231.64109	
56	0.55000000	527.44555	480.11341	-49.09897	536.52321	399.66016	-71.79264	336.56509	119.44572	-93.83184	258.55271	104.04968	-130.73082	422.72461	40.27678	-64.42532	477.52454	60.65185	-120.03326	794.00915	489.43809	-301.74396	849.30883	411.78752	-304.79367	878.10407	100.29495	-278.27821	822.73600	58.61919	-229.06626	996.07844	58.11057	-313.61084	1031.53515	93.69264	-264.96228	471.14078	304.20022	-54.17277	469.36972	441.61707	-35.89022	407.62927	347.67906	-40.96584	759.75961	398.16051	-302.45042	790.85639	278.82290	-308.02191	672.31620	770.97216	-0.32839	641.81758	663.78786	-15.83520	581.28530	654.63009	5.24565	563.76950	796.85778	19.16472	533.24913	685.06734	-4.81606	737.30265	749.99006	-356.02608	788.70459	625.01800	-328.15891	630.91287	711.37314	-322.33737	689.44868	582.03255	-301.18352	721.75936	943.18598	-33.61503	534.27726	990.37175	-126.39444	738.69086	930.30910	-283.95190	533.17458	989.85448	-226.96682	536.54632	1394.38239	-182.24961	656.04240	1364.05773	-14.16275	600.73103	1359.01467	-367.34379	679.77632	1365.04156	-176.29283	679.67390	1366.19776	-218.72953	692.64442	1231.42093	42.72640	668.11141	1011.98236	12.88585	697.95070	1031.68109	71.29218	813.95599	950.20226	53.27327	903.28160	849.74833	29.19763	886.81114	829.14516	54.93214	573.62418	1247.05650	-420.38958	471.75531	1046.95050	-316.88868	458.96979	1066.31145	-392.77777	458.60511	955.35896	-420.11731	395.80824	810.74127	-430.70779	366.16516	827.03180	-442.48996	640.11273	867.34189	-61.21294	652.99583	861.28930	-267.18808	652.73299	868.23092	-67.36180	650.91719	867.38210	-233.17250	
